<svg xmlns="http://www.w3.org/2000/svg" viewBox="0 0 24 24" width="40" height="40" class="size-6">
    <!-- Background -->
    <rect width="24" height="24" rx="4" fill="#f3b841" />
    <!-- Globe Icon (Language) -->
    <path fill="white" d="M12 2C6.48 2 2 6.48 2 12s4.48 10 10 10 10-4.48 10-10S17.52 2 12 2zm6.93 6h-2.95a15.9 15.9 0 0 0-1.24-3.02A8.03 8.03 0 0 1 18.93 8zM12 4c.83 1.2 1.48 2.58 1.91 4H10.1A11.72 11.72 0 0 1 12 4zM4.26 14a7.96 7.96 0 0 1 0-4h3.48c-.09.66-.14 1.32-.14 2s.05 1.34.14 2H4.26zm1.81 4h2.95c.34 1.07.77 2.07 1.24 3.02A8.03 8.03 0 0 1 6.07 18zM8.19 8H5.24a8.03 8.03 0 0 1 3.26-3.02A15.9 15.9 0 0 0 8.19 8zm1.91 12a11.72 11.72 0 0 1-1.91-4h3.81c-.43 1.42-1.08 2.8-1.9 4zm0-12h3.81c-.43-1.42-1.08-2.8-1.9-4a11.72 11.72 0 0 0-1.91 4zm2 10c.83-1.2 1.48-2.58 1.91-4h-3.81c.43 1.42 1.08 2.8 1.9 4zm.19-6h3.81a11.72 11.72 0 0 0-1.9-4h-3.82c.42 1.42 1.08 2.8 1.91 4zm0 2c-.83 1.2-1.48 2.58-1.91 4h3.81a11.72 11.72 0 0 0-1.9-4zm2.81 6c.47-.95.9-1.95  1.24-3.02h2.95a8.03 8.03 0 0 1-3.26 3.02zM16.26 14c.09-.66.14-1.32.14-2s-.05-1.34-.14-2h3.48a7.96 7.96 0 0 1 0 4h-3.48z" />
</svg>